<svg clip-rule="evenodd" fill-rule="evenodd" stroke-linejoin="round" stroke-miterlimit="2" viewBox="0 0 34 34" xmlns="http://www.w3.org/2000/svg" xmlns:xlink="http://www.w3.org/1999/xlink"><clipPath id="a"><path clip-rule="evenodd" d="m-106.839-33.273h66.387v66.387h-66.387z"/></clipPath><g transform="matrix(.51215 0 0 .51215 54.7174 17.0409)"><path d="m-106.839-33.273h66.387v66.387h-66.387z" fill="none"/><g clip-path="url(#a)"><g fill-rule="nonzero"><path d="m58.666 49.699c-3.598 9.117-12.632 15.013-23.208 15.013-9.117 0-19.256-5.706-22.853-14.823l-.126-.312c-1.142-2.86-.958-6.36-.958-9.633l3.667-32.371 10.228 10.08c2.923-1.248 6.137-1.939 9.511-1.939h1.063c3.373 0 6.588.691 9.51 1.939l11.228-11.08 3.723 33.876c0 3.272-.629 6.397-1.771 9.256" fill="#f4aa41" transform="matrix(.97190118227 0 0 .97190118227 -115.63078846302 -39.20811207321)"/><path d="m35.458 64.712c10.609.343 20.354-5.862 23.952-14.979l.111-.231c1.141-2.86.958-6.896.958-10.169l-3.751-32.76" fill="#e27022" transform="matrix(.97190118227 0 0 .97190118227 -115.63078846302 -39.20811207321)"/><path d="m55.106 34.495s-13.906 5.878-13.252 6.625c13.306 12.103 14.35-4.939 13.252-6.625z" fill="#fff" transform="matrix(.97190118227 0 0 .97190118227 -115.63078846302 -39.20811207321)"/><path d="m16.894 34.495s12.866 6.918 13.252 6.625c-12.845 12.737-14.549-3.86-13.252-6.625z" fill="#fff" transform="matrix(.97190118227 0 0 .97190118227 -115.63078846302 -39.20811207321)"/></g><path d="m36.031 46.653c1.304.071 3.317 3.275 4.963 5.649.522.831-.699 2.095-1.555 1.244-2.546-2.772-6.107-6.915-3.408-6.893z" transform="matrix(.97190118227 0 0 .97190118227 -115.63078846302 -39.20811207321)"/><path d="m36.06 46.655c.729.06 1.175.972.748 1.586-1.682 2.204-3.734 5.32-4.712 5.579-.782.206-1.57-.755-1.09-1.518 1.7-2.452 3.853-5.692 5.054-5.647z" transform="matrix(.97190118227 0 0 .97190118227 -115.63078846302 -39.20811207321)"/><path d="m40.217 46.655c1.006.086 1.249 1.889 0 1.996-2.81.081-5.624.081-8.434 0-1.028-.088-1.138-1.899 0-1.996 2.81-.081 5.624-.081 8.434 0z" transform="matrix(.97190118227 0 0 .97190118227 -115.63078846302 -39.20811207321)"/><path d="m55.205 33.5c4.198.57.917 11.671-4.098 12.8-3.888.876-7.43-2.06-9.964-4.478-1.339-1.436 1.592-2.725 3.042-3.461 3.522-1.791 7.561-5.081 11.02-4.861zm-.982 2.46c-3.685 1.596-7.439 3.1-10.874 5.128 0 0 5.055 5.25 8.495 2.72 2.188-1.609 2.726-5.002 2.571-7.757-.021-.382-.121-.121-.192-.091z" transform="matrix(.97190118227 0 0 .97190118227 -115.63078846302 -39.20811207321)"/><path d="m37.162 14.941c2.8.089 5.575.628 8.202 1.607l10.844-10.261c.659-.417 1.445-.078 1.586.696l3.64 32.76c.158 3.028-.559 6.215-1.691 9.165 0 0-2.991 2.465-1.583-1.483.805-2.345 1.233-4.807 1.278-7.288l-3.406-30.898-9.512 9.284c-.7.6-.931.243-2.128-.203-5.736-2.056-12.223-1.915-17.829.411 0 0-.569.232-1.082-.208l-9.513-9.284-3.408 30.666c.002.266.007.532.015.798.113 2.649.667 5.267 1.646 7.732 0 0-.912 3.327-2.17-.073-.973-2.727-1.473-5.606-1.491-8.503l3.671-33.014c.245-.74 1.067-.977 1.667-.468l10.512 10.258c.265-.102.531-.2.798-.296 3.176-1.095 6.53-1.463 9.954-1.398z" transform="matrix(.97190118227 0 0 .97190118227 -115.63078846302 -39.20811207321)"/><path d="m22.969 59.166c1.185.234 2.241 1.229 3.498 1.767 1.83.784 3.763 1.325 5.734 1.607 5.644.808 11.57-.245 16.451-3.237 0 0 2.696.693.692 1.921-8.21 4.844-18.931 4.755-27.041-.216 0 0-.862-1.986.666-1.842z" transform="matrix(.97190118227 0 0 .97190118227 -115.63078846302 -39.20811207321)"/><path d="m16.957 33.497c1.489.147 2.873 1.431 4.494 2.286 2.884 1.513 5.645 3.343 8.724 4.337.752.011 1.6.831.064 2.302-.477.446-.96.884-1.464 1.301-.361.3-.73.589-1.11.866-.345.251-.697.492-1.06.718-2.733 1.706-6.944 2.231-9.127-.99-2.007-2.961-3.213-7.514-1.431-10.354.185-.295.518-.477.91-.466zm.605 2.674c-.04.638-.035 1.274.016 1.911.038.468.098.933.181 1.395.066.369.146.734.243 1.096.069.255.145.509.232.759.067.195.14.389.219.579.876 2.101 3.448 3.54 6.022 2.295 1.412-.683 2.654-1.675 3.82-2.711-3.355-1.562-6.595-3.314-9.854-5.041 0 0-.839-.742-.879-.283zm12.254 3.996s.173-.032 0 0z" transform="matrix(.97190118227 0 0 .97190118227 -115.63078846302 -39.20811207321)"/><path d="m52.724 48.736c.123.015.235.045.348.095 3.207 1.657 6.365 3.411 9.466 5.259.835.569.161 2.245-.97 1.745-3.207-1.657-6.365-3.411-9.466-5.259-.765-.521-.512-1.901.622-1.84z" transform="matrix(.97190118227 0 0 .97190118227 -115.63078846302 -39.20811207321)"/><path d="m48.564 53.936c.123.015.235.045.348.095 3.207 1.657 6.365 3.411 9.466 5.259.835.569.161 2.245-.97 1.745-3.207-1.657-6.365-3.411-9.466-5.259-.765-.521-.512-1.901.622-1.84z" transform="matrix(.97190118227 0 0 .97190118227 -115.63078846302 -39.20811207321)"/><path d="m19.397 48.734c.873.058 1.263 1.323.501 1.842-3.101 1.848-6.259 3.602-9.466 5.259-.925.409-1.992-1.05-.97-1.745 3.101-1.848 6.259-3.602 9.466-5.259.142-.063.163-.099.469-.097z" transform="matrix(.97190118227 0 0 .97190118227 -115.63078846302 -39.20811207321)"/><path d="m23.557 53.934c.873.058 1.263 1.323.501 1.842-3.101 1.848-6.259 3.602-9.466 5.259-.943.417-1.903-1.11-.97-1.745 3.101-1.848 6.259-3.602 9.466-5.259.142-.063.171-.099.469-.097z" transform="matrix(.97190118227 0 0 .97190118227 -115.63078846302 -39.20811207321)"/><circle cx="23.52" cy="39.333" r="2.08" transform="matrix(.97190118227 0 0 .97190118227 -115.63078846302 -39.20811207321)"/><circle cx="48.48" cy="39.333" r="2.08" transform="matrix(.97190118227 0 0 .97190118227 -115.63078846302 -39.20811207321)"/><path d="m67.037 43.222-6.95 16.351h-24.99l6.95-16.351z" fill="#d0cfce" fill-rule="nonzero" transform="matrix(1.48167467476 0 0 1.48167467476 -139.77869781402 -56.71195963781)"/><path d="m66.769 43.328-7.064 16.245h-8.392l6.95-16.351z" fill="#9b9b9a" fill-rule="nonzero" transform="matrix(1.48167467476 0 0 1.48167467476 -139.77869781402 -56.71195963781)"/><path d="m67.146 42.229c.671.111 1.035.766.811 1.385l-6.95 16.35c-.302.618-.625.593-.92.609h-24.99c-.699-.039-1.163-.723-.921-1.392l6.95-16.35c.179-.366.37-.579.921-.608 8.366 0 16.745-.453 25.099.006zm-24.438 1.994-6.1 14.35h22.817l6.1-14.35z" transform="matrix(1.48167467476 0 0 1.48167467476 -141.26039061485 -56.71195963781)"/><path d="m35.162 58.575c.979.096 1.284 1.869 0 1.995-3.676.121-7.357.003-11.035.003-1.035-.034-1.318-1.875-.066-1.998 3.699-.121 7.403-.121 11.101 0z" transform="matrix(1.48167467476 0 0 1.48167467476 -141.26039061485 -56.71195963781)"/></g></g></svg>