<?xml version="1.0" standalone="no"?>
<!DOCTYPE svg PUBLIC "-//W3C//DTD SVG 20010904//EN"
 "http://www.w3.org/TR/2001/REC-SVG-20010904/DTD/svg10.dtd">
<svg version="1.0" xmlns="http://www.w3.org/2000/svg"
 width="50.000000pt" height="50.000000pt" viewBox="0 0 50.000000 50.000000"
 preserveAspectRatio="xMidYMid meet">

<g transform="translate(0.000000,50.000000) scale(0.100000,-0.100000)"
fill:"currentColor" stroke="none">
<path d="M275 486 c-64 -28 -105 -107 -92 -175 5 -24 -5 -38 -89 -122 -84 -83
-94 -98 -94 -129 0 -46 15 -60 60 -60 36 0 70 23 70 48 0 7 6 12 13 12 7 0 31
19 53 42 71 75 88 88 111 82 21 -6 22 -8 8 -35 -19 -35 -19 -62 -1 -98 35 -66
137 -66 172 0 26 52 10 110 -37 135 l-27 14 33 33 c121 121 -23 322 -180 253z
m133 -26 c97 -59 92 -191 -9 -242 -66 -34 -138 -12 -179 54 -71 117 71 259
188 188z m-159 -277 c-6 -7 -17 -13 -24 -13 -7 0 -15 -9 -18 -20 -3 -11 -11
-20 -19 -20 -7 0 -18 -10 -23 -22 -6 -13 -20 -24 -32 -26 -14 -2 -23 -10 -23
-21 0 -9 -5 -22 -12 -29 -13 -13 -68 -17 -68 -5 0 4 37 45 82 90 45 45 79 86
75 90 -4 4 -43 -29 -87 -72 -44 -44 -80 -73 -80 -65 0 8 39 54 87 102 l87 88
33 -32 c25 -24 30 -35 22 -45z m206 -28 c50 -49 15 -135 -55 -135 -41 0 -80
39 -80 80 0 70 86 105 135 55z"/>
<path d="M288 434 c-16 -8 -28 -18 -28 -22 0 -9 143 -152 152 -152 11 0 38 56
38 80 0 34 -28 78 -60 95 -36 19 -67 19 -102 -1z m113 -33 c30 -30 38 -72 19
-101 -8 -12 -21 -3 -72 48 -51 51 -60 64 -48 72 29 19 71 11 101 -19z"/>
<path d="M390 135 c0 -20 -5 -25 -25 -25 -14 0 -25 -4 -25 -10 0 -5 11 -10 25
-10 20 0 25 -5 25 -25 0 -14 5 -25 10 -25 6 0 10 11 10 25 0 20 5 25 25 25 14
0 25 5 25 10 0 6 -11 10 -25 10 -20 0 -25 5 -25 25 0 14 -4 25 -10 25 -5 0
-10 -11 -10 -25z"/>
</g>
</svg>
